<?xml version="1.0" encoding="UTF-8" standalone="no"?>
<!DOCTYPE svg PUBLIC "-//W3C//DTD SVG 1.1//EN" "http://www.w3.org/Graphics/SVG/1.1/DTD/svg11.dtd">
<svg width="100%" height="100%" viewBox="0 0 588 585" version="1.1" xmlns="http://www.w3.org/2000/svg" xmlns:xlink="http://www.w3.org/1999/xlink" xml:space="preserve" xmlns:serif="http://www.serif.com/" style="fill-rule:evenodd;clip-rule:evenodd;stroke-linejoin:round;stroke-miterlimit:2;">
    <g transform="matrix(1,0,0,1,-292.038,-292.888)">
        <path d="M611.986,398.021C608.522,397.72 606.111,394.558 607.166,391.093C618.162,359.157 630.815,329.03 645.126,301.013C646.783,297.698 649.645,296.343 653.562,296.794C732.494,305.683 807.209,330.536 873.789,367.743C877.857,370.003 879.664,373.618 879.514,378.439C878.158,567.939 783.258,749.302 623.435,858.964C620.422,861.073 616.506,859.868 615.149,856.403C603.551,825.222 594.061,793.589 587.282,763.009C586.379,758.942 587.282,755.778 590.445,753.368C687.153,677.148 754.938,563.419 771.207,434.023C721.949,413.689 668.625,401.034 611.986,398.021ZM418.42,517.173C457.436,499.097 498.559,488.101 538.929,483.28C543.297,482.679 545.105,485.691 544.652,489.155C539.531,520.187 536.066,551.669 534.711,583.452C534.409,587.068 532.451,589.478 528.384,590.232C505.939,594.601 484.098,601.528 459.996,612.525C481.688,650.185 507.897,684.679 536.819,713.601C540.134,717.066 542.092,720.681 542.996,726.556C550.527,774.909 563.633,823.716 581.106,869.96C582.16,872.521 582.16,874.329 580.654,875.835C578.997,877.341 576.437,877.341 574.026,875.835C399.29,769.487 293.846,578.632 292.038,378.439C292.038,373.618 293.695,370.003 297.762,367.743C390.553,315.775 494.943,290.771 599.785,293.028C604.455,293.181 606.111,297.247 604.304,301.013C589.843,330.989 577.792,361.568 568.303,392.148C567.248,395.763 564.988,397.569 561.072,397.72C505.035,400.583 450.505,413.235 400.495,434.023C404.11,462.493 410.286,490.36 418.42,517.173Z" style="fill:rgb(0,120,255);fill-rule:nonzero;"/>
    </g>
</svg>
