<svg fill="none" height="16" width="16" xmlns="http://www.w3.org/2000/svg"><path d="M0 0h16v16H0z" fill="#fff"/><g fill="#bfa970"><path d="M.824 6.576c0 1.41.235 2.73.94 3.817v-.94c0-1.174.942-1.996 1.912-2.525-1 .323-2.088.089-2.852-.352zm.823-.998h-.323c-.06-.176.44-.5.588-.264zm-1-.147c.265.176.647.264 1.03.235.323.235.764-.411 1.235-.411.676-.088 1.53-.176 2 .411l-.236-.44A3.912 3.912 0 013 4.668c-1-.44-1.5.998-2.353.763zm-.588-2.32c.323.089.647.177.941.177.676-.264.853-.822.588-1.527C1.176 1.174.647.851.058.734zM4.589 16c.087-.088.235-.235.323-.352 1.823-2.349-1.736-3.729-1.647-5.99.088-.91.588-1.585 1.176-2.319l-.03-.058c-.558.558-.764.91-1.146 1.438-1.089 2.232.44 5.314-1.147 7.193zm7.352-7.985c0 3.258-1.53 6.106-3.941 7.985h8V.059H8a9.95 9.95 0 013.941 7.956z"/><path d="M.059 16h1.353l.323-.323C3.588 13.152 1.382 11.361 0 9.365zM3.824.059H.059v.264c.353.059.765.176 1.088.323.765.44 1.353 1.174 1.265 2.084l1.676-.176c.236-.558.324-1.41.088-1.85C4.088.412 3.941.177 3.824.06zm.764 0c.353.499.353 1.115.412 1.614.676-.499 1.5-.822 2.353-.587-.588-.44-1-.822-1.735-1.086zM7.941 8.16l-.147.353-.176-.44c-.412.087-.824.234-1.03.675-.059.146.06.352-.088.44-.265-.059-.147-.5-.147-.763.323-.323 1.176-.998 1.5-.734.088.058.147.293.088.47zm-1.823 3.26c-.236-.177-.147-.5-.147-.735l.147-.147c.235.734.823-.146 1.264-.058.236-.088.147-.411.353-.353.383 1.145-.97.94-1.617 1.292zm3.264.146c.177-1.497.06-3.083-1.03-4.11-.234-.059-.558.088-.734-.147-.5.44-1.147.646-1.589 1.145-.5.147-1-.176-1.5-.264v-.176c-.676.44-.5 1.35-.647 2.025.177.764 1.03 1.087 1.589 1.527.853.147 1.647-.235 2.353-.5.147.148.323.236.235.412-.588.822-1.441 1.174-2.441 1.086.588 1.145.176 2.437-.442 3.435h.589c1.823-.822 3.5-2.084 3.617-4.433"/><path d="M10.706 5.431c-.5-1.732-2.03-4.022-4.088-3.904-.765.058-1.53.645-1.824 1.086a9.264 9.264 0 011.647 1.233c-.059.176.088.41-.147.499-.265-.235-.5-.763-.853-.587.265.587 1 .646 1.53.763.235.235.147.587.588.411.235.059.323.323.353.5-.353.674-1.353.234-1.912.351.441.177.941.235 1.353.5.412.264.559-.353.735-.588.736.177.324.94.647 1.35 1.53 1.586 1.236 4.405.441 6.195 2.177-1.82 2-6.077 1.53-7.809"/></g></svg>