<?xml version="1.0" encoding="UTF-8" standalone="no"?>
<!DOCTYPE svg PUBLIC "-//W3C//DTD SVG 1.1//EN" "http://www.w3.org/Graphics/SVG/1.1/DTD/svg11.dtd">
<svg width="100%" height="100%" viewBox="0 0 80 80" version="1.1" xmlns="http://www.w3.org/2000/svg" xmlns:xlink="http://www.w3.org/1999/xlink" xml:space="preserve" xmlns:serif="http://www.serif.com/" style="fill-rule:evenodd;clip-rule:evenodd;stroke-linejoin:round;stroke-miterlimit:2;">
    <g transform="matrix(1.00105,0,0,1.00134,-0.0980286,-1.92089e-05)">
        <rect x="0.098" y="0.014" width="79.916" height="79.893" style="fill:rgb(30,53,91);"/>
    </g>
    <g transform="matrix(1,0,0,1,5.5,26)">
        <path d="M28.698,12.542C27.203,12.099 25.883,11.637 25.166,11.073C24.934,10.88 24.709,10.643 24.698,10.279C24.695,9.995 24.879,9.744 25.093,9.595C25.311,9.437 25.573,9.329 25.904,9.229C27.163,8.857 28.506,8.656 29.674,8.391C30.844,8.132 31.81,7.798 32.334,7.288C32.682,6.948 32.891,6.54 32.905,5.889L32.905,5.868C32.905,5.425 32.627,5.002 31.948,4.554C31.276,4.114 30.24,3.708 28.958,3.362C26.39,2.668 22.843,2.203 19.112,1.902C11.658,1.296 3.464,1.322 0.54,1.294L0.524,1.294C0.463,1.294 0.403,1.284 0.346,1.264L0.336,1.262L0.334,1.26L0.324,1.258L0.322,1.256C0.319,1.256 0.316,1.255 0.314,1.253C0.312,1.252 0.311,1.252 0.309,1.252C0.307,1.251 0.305,1.25 0.303,1.249L0.298,1.246C0.293,1.244 0.289,1.242 0.285,1.24L0.282,1.24C0.128,1.172 0.021,1.026 0.002,0.858C-0.021,0.595 0.195,0.367 0.487,0.347C3.555,0.128 7.19,0.014 11.04,0.014C21.03,0.016 32.449,0.781 39.219,2.559C41.481,3.159 43.232,3.853 44.295,4.762C44.899,5.279 45.285,5.909 45.285,6.61C45.285,6.635 45.285,6.662 45.282,6.693C45.249,7.609 44.67,8.323 43.915,8.8C43.159,9.285 42.213,9.589 41.255,9.799C40.261,10.016 39.248,10.126 38.43,10.183C46.104,14.128 57.376,14.907 63.765,14.899C65.572,14.899 66.993,14.839 67.821,14.776C68.109,14.754 68.363,14.946 68.391,15.203C68.421,15.461 68.209,15.692 67.923,15.72C63.513,16.156 59.451,16.338 55.735,16.338C42.231,16.34 33.283,13.925 28.699,12.542" style="fill:rgb(242,176,45);"/>
        <path d="M5.153,27.034C5.355,26.869 5.456,26.626 5.456,26.305C5.456,25.985 5.351,25.73 5.141,25.543C4.931,25.355 4.644,25.262 4.279,25.262L0.55,25.262L0.55,27.282L4.265,27.282C4.655,27.282 4.951,27.2 5.154,27.034L5.153,27.034ZM4.634,24.717C4.888,24.626 5.092,24.433 5.197,24.184C5.251,24.059 5.278,23.922 5.278,23.774C5.288,23.527 5.194,23.286 5.019,23.111C4.847,22.941 4.612,22.856 4.316,22.856L0.55,22.856L0.55,24.796L4.206,24.796C4.359,24.796 4.502,24.769 4.636,24.717L4.634,24.717ZM5.689,25.502C5.869,25.717 5.959,25.994 5.959,26.335C5.959,26.552 5.921,26.747 5.845,26.92C5.768,27.092 5.657,27.24 5.512,27.364C5.355,27.493 5.174,27.59 4.979,27.649C4.769,27.715 4.533,27.749 4.272,27.749L0.067,27.749L0.067,22.389L4.235,22.389C4.733,22.389 5.118,22.513 5.389,22.759C5.661,23.006 5.797,23.339 5.797,23.759C5.797,24.07 5.721,24.325 5.571,24.525C5.421,24.725 5.185,24.884 4.864,25.003C5.234,25.121 5.509,25.288 5.689,25.503L5.689,25.502ZM8.624,27.749L8.624,22.39L13.621,22.39L13.621,22.856L9.105,22.856L9.105,24.677L12.244,24.677L12.244,25.143L9.105,25.143L9.105,27.282L13.828,27.282L13.828,27.749L8.624,27.749M18.535,22.856L18.535,27.749L18.054,27.749L18.054,22.856L15.493,22.856L15.493,22.39L21.097,22.39L21.097,22.856L18.535,22.856M27.999,24.638C28.151,24.505 28.235,24.309 28.225,24.107C28.231,23.912 28.146,23.725 27.995,23.602C27.842,23.475 27.625,23.412 27.344,23.412L24.405,23.412L24.405,24.832L27.351,24.832C27.632,24.832 27.848,24.768 27.999,24.638ZM28.188,27.748L26.87,25.854L24.405,25.854L24.405,27.749L23.102,27.749L23.102,22.389L27.492,22.389C27.798,22.389 28.075,22.432 28.325,22.516C28.574,22.599 28.785,22.719 28.961,22.875C29.136,23.03 29.272,23.215 29.368,23.43C29.465,23.645 29.513,23.883 29.513,24.144C29.513,24.998 29.106,25.536 28.291,25.758L29.653,27.748L28.188,27.748ZM32.007,27.749L33.31,27.749L33.31,22.39L32.007,22.39L32.007,27.749ZM39.601,27.749L38.387,27.749L35.22,22.39L36.678,22.39L38.994,26.313L41.311,22.39L42.77,22.39L39.601,27.749M44.561,27.749L44.561,22.39L50.372,22.39L50.372,23.411L45.864,23.411L45.864,24.521L48.995,24.521L48.995,25.543L45.864,25.543L45.864,26.727L50.579,26.727L50.579,27.749L44.561,27.749M57.851,24.638C58.003,24.505 58.087,24.309 58.077,24.107C58.084,23.912 57.998,23.725 57.847,23.602C57.694,23.475 57.477,23.412 57.197,23.412L54.257,23.412L54.257,24.832L57.203,24.832C57.485,24.832 57.701,24.768 57.851,24.638ZM58.04,27.748L56.722,25.854L54.257,25.854L54.257,27.749L52.955,27.749L52.955,22.389L57.345,22.389C57.65,22.389 57.928,22.432 58.177,22.516C58.426,22.599 58.638,22.719 58.813,22.875C58.989,23.03 59.124,23.215 59.221,23.43C59.317,23.645 59.365,23.883 59.365,24.144C59.365,24.998 58.958,25.536 58.144,25.758L59.506,27.748L58.04,27.748ZM65.879,23.444C65.484,23.347 65.079,23.298 64.672,23.3C64.11,23.3 63.686,23.35 63.402,23.452C63.119,23.553 62.977,23.69 62.977,23.862C62.977,24.045 63.133,24.174 63.443,24.248C63.58,24.279 63.718,24.301 63.858,24.314C64.006,24.329 64.165,24.34 64.335,24.347L64.875,24.37C65.065,24.377 65.265,24.39 65.472,24.41C65.892,24.45 66.256,24.507 66.567,24.58C66.877,24.655 67.137,24.755 67.344,24.88C67.552,25.006 67.706,25.163 67.807,25.35C67.908,25.538 67.959,25.763 67.959,26.024C67.959,26.606 67.693,27.06 67.163,27.386C66.633,27.712 65.854,27.874 64.828,27.874C64.201,27.88 63.576,27.801 62.97,27.638C62.39,27.474 61.842,27.214 61.349,26.868L62.059,25.994C62.523,26.276 62.985,26.484 63.443,26.62C63.903,26.756 64.383,26.824 64.887,26.824C65.43,26.824 65.847,26.754 66.137,26.616C66.429,26.478 66.575,26.298 66.575,26.076C66.58,25.97 66.533,25.867 66.449,25.802C66.34,25.727 66.216,25.677 66.086,25.654C65.896,25.616 65.703,25.593 65.509,25.587C65.282,25.577 65.025,25.565 64.739,25.55C64.28,25.536 63.822,25.493 63.369,25.42C63.033,25.37 62.705,25.273 62.396,25.132C62.164,25.028 61.964,24.865 61.816,24.658C61.684,24.455 61.616,24.216 61.623,23.974C61.623,23.446 61.877,23.028 62.385,22.719C62.893,22.411 63.635,22.256 64.613,22.256C65.921,22.256 66.972,22.518 67.766,23.041L67.026,23.9C66.665,23.7 66.279,23.547 65.879,23.444" style="fill:rgb(255,255,254);"/>
    </g>
</svg>
