<svg fill="none" height="16" width="16" xmlns="http://www.w3.org/2000/svg"><mask id="a" height="16" maskUnits="userSpaceOnUse" width="16" x="0" y="0"><path d="M2.197 0h11.606C15.016 0 16 .995 16 2.223v11.554C16 15.005 15.016 16 13.803 16H2.197C.984 16 0 15.005 0 13.777V2.223C0 .995.984 0 2.197 0z" fill="#fff"/></mask><g mask="url(#a)"><path d="M2.197 0h11.606C15.016 0 16 .995 16 2.223v11.554C16 15.005 15.016 16 13.803 16H2.197C.984 16 0 15.005 0 13.777V2.223C0 .995.984 0 2.197 0z" fill="#d8d8d8"/><path d="M-.246 0h16.37v16.496H-.247z" fill="#61b510"/><g fill="#fff"><path d="M12.655 3.131a1.063 1.063 0 00-.613.903h-.001a1.05 1.05 0 00-.993-.119 1.057 1.057 0 00.697.7 2.062 2.062 0 01-.611.615.748.748 0 01-.355.118.794.794 0 01-.798-.415.794.794 0 01-1.009.347 2.056 2.056 0 01-.943-1.216l.018-.002a1.042 1.042 0 00.835-.601 1.048 1.048 0 00-1.02-.13c.011-.37-.266-.926-.605-1.128a1.349 1.349 0 00-.133-.067l-.03-.013-.02.027A1.064 1.064 0 007 2.259c-.2.341-.145.954.042 1.273a1.04 1.04 0 00-.831.607 1.046 1.046 0 001.02.123l.016-.007a2.06 2.06 0 01-.114 1.272L7.13 5.52l-.01.031a1.99 1.99 0 01-.136.257.802.802 0 01-1.055.177.81.81 0 01-.507.744.784.784 0 01-.222.053 2.056 2.056 0 01-.944-.248 1.047 1.047 0 00.294-.815c-.004-.046-.01-.132-.02-.176-.362.046-.661.37-.812.544h-.001c-.2-.174-.568-.485-.971-.454-.095.007-.184.05-.27.08a13.582 13.582 0 012.1 1.961c.363.415.981 1.255.982 1.254.076.107.385.245.595.224a.059.059 0 00.05-.055c.003-.022-.035-.035-.055-.044a.475.475 0 01-.3-.333c-.115-.366.976-1.027 2.57-1.433 1.595-.406 2.876-.357 2.95.021.031.16.02.279-.102.437-.013.017-.04.047-.027.065a.06.06 0 00.071.025c.193-.083.399-.353.414-.483 0 0 .172-1.04.29-1.579.204-.936.508-1.848.905-2.72a1.04 1.04 0 00-.265.077"/><path d="M7.02 8.098s1.268-.574 2.697-.745c0 0 1.811.18 1.811 2.311 0 2.133-1.512 3.35-3.57 3.35-2.057 0-3.142-.91-3.142-1.88s.694-1.123 1.017-1.123c.323 0 .907.292.907 1.052 0 0-.581-.143-.581.361 0 .505.687.82 1.63.82.943 0 2.273-.415 2.273-2.261 0-1.97-.908-2.057-1.54-2.057v3.378s.017.297.33.297c0 0-.332.281-1.154.281s-1.056-.264-1.056-.264.39.001.39-.343-.011-3.177-.011-3.177"/></g></g></svg>